<svg width="24" height="12" viewBox="0 0 24 12" fill="none" xmlns="http://www.w3.org/2000/svg">
<path d="M1.51008 0.078977C1.70706 0.0787129 1.90215 0.117458 2.08408 0.192977C2.26601 0.268495 2.43119 0.379293 2.57008 0.518976L10.2431 8.19097C10.4752 8.42318 10.7509 8.60739 11.0542 8.73307C11.3576 8.85875 11.6827 8.92343 12.0111 8.92343C12.3394 8.92343 12.6646 8.85875 12.9679 8.73307C13.2713 8.60739 13.5469 8.42318 13.7791 8.19097L21.4401 0.528976C21.5785 0.385711 21.744 0.271438 21.927 0.192825C22.11 0.114211 22.3068 0.0728323 22.506 0.0711016C22.7051 0.0693708 22.9027 0.107323 23.087 0.182744C23.2714 0.258165 23.4388 0.369545 23.5797 0.510384C23.7205 0.651223 23.8319 0.8187 23.9073 1.00304C23.9827 1.18739 24.0207 1.38491 24.019 1.58408C24.0172 1.78325 23.9758 1.98008 23.8972 2.16308C23.8186 2.34609 23.7043 2.5116 23.5611 2.64997L15.9001 10.312C14.868 11.3421 13.4693 11.9207 12.0111 11.9207C10.5528 11.9207 9.15417 11.3421 8.12208 10.312L0.44908 2.63997C0.239164 2.43019 0.0961935 2.16286 0.0382594 1.8718C-0.0196747 1.58074 0.0100314 1.27903 0.123619 1.00486C0.237206 0.730686 0.42957 0.496368 0.676369 0.331555C0.923168 0.166743 1.21331 0.0788425 1.51008 0.078977V0.078977Z" fill="#9D6A52"/>
</svg>
