<svg width="24" height="24" viewBox="0 0 24 24" fill="none" xmlns="http://www.w3.org/2000/svg">
<g clip-path="url(#clip0_9_32)">
<path d="M23.119 0.871547C22.8065 0.559735 22.4286 0.321137 22.0128 0.172943C21.5969 0.0247496 21.1533 -0.0293485 20.714 0.0145469C17.921 0.284547 8.52802 1.44755 4.90003 5.07155C3.1658 6.8105 2.13743 9.13037 2.0135 11.5832C1.88958 14.0359 2.6789 16.4477 4.22903 18.3525L15.289 7.29255C15.4776 7.11039 15.7302 7.0096 15.9924 7.01187C16.2546 7.01415 16.5054 7.11932 16.6908 7.30473C16.8762 7.49014 16.9814 7.74095 16.9837 8.00315C16.986 8.26534 16.8852 8.51795 16.703 8.70655L5.64703 19.7665C7.55125 21.3176 9.96277 22.1079 12.4157 21.9847C14.8686 21.8615 17.1888 20.8336 18.928 19.0995C22.604 15.4225 23.728 6.05855 23.987 3.27655C24.0293 2.83642 23.9734 2.39238 23.8233 1.97648C23.6732 1.56058 23.4327 1.18319 23.119 0.871547ZM4.90003 19.0995C5.13869 19.3375 5.38636 19.5612 5.64303 19.7705L1.70303 23.7105C1.51393 23.8922 1.26102 23.9924 0.998789 23.9894C0.73656 23.9864 0.485999 23.8805 0.301088 23.6946C0.116177 23.5086 0.0117159 23.2574 0.0102094 22.9952C0.00870285 22.733 0.110272 22.4806 0.293034 22.2925L4.23303 18.3525C4.44236 18.6085 4.6647 18.8575 4.90003 19.0995Z" fill="#457938"/>
</g>
<defs>
<clipPath id="clip0_9_32">
<rect width="24" height="24" fill="white"/>
</clipPath>
</defs>
</svg>
