<svg width="905" height="104" viewBox="0 0 905 104" fill="none" xmlns="http://www.w3.org/2000/svg">
<path d="M80.384 102.528H58.496L21.888 47.1039V102.528H0V12.6719H21.888L58.496 68.3519V12.6719H80.384V102.528Z" fill="#457938"/>
<path d="M91.898 66.6879C91.898 59.3492 93.2633 52.9065 95.994 47.3599C98.81 41.8132 102.607 37.5465 107.386 34.5599C112.165 31.5732 117.498 30.0799 123.386 30.0799C128.421 30.0799 132.815 31.1039 136.57 33.1519C140.41 35.1999 143.354 37.8879 145.402 41.2159V31.1039H167.29V102.528H145.402V92.4159C143.269 95.7439 140.282 98.4319 136.442 100.48C132.687 102.528 128.293 103.552 123.258 103.552C117.455 103.552 112.165 102.059 107.386 99.0719C102.607 95.9999 98.81 91.6905 95.994 86.1439C93.2633 80.5119 91.898 74.0265 91.898 66.6879ZM145.402 66.8159C145.402 61.3545 143.866 57.0452 140.794 53.8879C137.807 50.7305 134.138 49.1519 129.786 49.1519C125.434 49.1519 121.722 50.7305 118.65 53.8879C115.663 56.9599 114.17 61.2265 114.17 66.6879C114.17 72.1492 115.663 76.5012 118.65 79.7439C121.722 82.9012 125.434 84.4799 129.786 84.4799C134.138 84.4799 137.807 82.9012 140.794 79.7439C143.866 76.5865 145.402 72.2772 145.402 66.8159Z" fill="#457938"/>
<path d="M222.933 83.9679V102.528H211.797C203.861 102.528 197.674 100.608 193.237 96.7679C188.8 92.8425 186.581 86.4852 186.581 77.6959V49.2799H177.877V31.1039H186.581V13.6959H208.469V31.1039H222.805V49.2799H208.469V77.9519C208.469 80.0852 208.981 81.6212 210.005 82.5599C211.029 83.4985 212.736 83.9679 215.125 83.9679H222.933Z" fill="#457938"/>
<path d="M305.653 31.1039V102.528H283.765V92.7999C281.546 95.9572 278.517 98.5172 274.677 100.48C270.922 102.357 266.741 103.296 262.133 103.296C256.672 103.296 251.85 102.101 247.669 99.7119C243.488 97.2372 240.245 93.6959 237.941 89.0879C235.637 84.4799 234.485 79.0612 234.485 72.8319V31.1039H256.245V69.8879C256.245 74.6665 257.482 78.3785 259.957 81.0239C262.432 83.6692 265.76 84.9919 269.941 84.9919C274.208 84.9919 277.578 83.6692 280.053 81.0239C282.528 78.3785 283.765 74.6665 283.765 69.8879V31.1039H305.653Z" fill="#457938"/>
<path d="M343.263 43.0079C345.823 39.0825 349.023 36.0105 352.863 33.7919C356.703 31.4879 360.97 30.3359 365.663 30.3359V53.5039H359.647C354.186 53.5039 350.09 54.6985 347.359 57.0879C344.628 59.3919 343.263 63.4879 343.263 69.3759V102.528H321.375V31.1039H343.263V43.0079Z" fill="#457938"/>
<path d="M408.637 103.552C401.64 103.552 395.325 102.059 389.693 99.0719C384.146 96.0852 379.752 91.8185 376.509 86.2719C373.352 80.7252 371.773 74.2399 371.773 66.8159C371.773 59.4772 373.394 53.0345 376.637 47.4879C379.88 41.8559 384.317 37.5465 389.949 34.5599C395.581 31.5732 401.896 30.0799 408.893 30.0799C415.89 30.0799 422.205 31.5732 427.837 34.5599C433.469 37.5465 437.906 41.8559 441.149 47.4879C444.392 53.0345 446.013 59.4772 446.013 66.8159C446.013 74.1545 444.349 80.6399 441.021 86.2719C437.778 91.8185 433.298 96.0852 427.581 99.0719C421.949 102.059 415.634 103.552 408.637 103.552ZM408.637 84.6079C412.818 84.6079 416.36 83.0719 419.261 79.9999C422.248 76.9279 423.741 72.5332 423.741 66.8159C423.741 61.0985 422.29 56.7039 419.389 53.6319C416.573 50.5599 413.074 49.0239 408.893 49.0239C404.626 49.0239 401.085 50.5599 398.269 53.6319C395.453 56.6185 394.045 61.0132 394.045 66.8159C394.045 72.5332 395.41 76.9279 398.141 79.9999C400.957 83.0719 404.456 84.6079 408.637 84.6079Z" fill="#457938"/>
<g clip-path="url(#clip0_133_54)">
<path d="M476.973 84.0001C474.831 83.9743 472.732 84.5981 470.952 85.7891C469.171 86.9801 467.794 88.6825 467 90.6721V83.9101C468.397 83.6728 469.664 82.9495 470.579 81.8681C471.494 80.7866 471.997 79.4166 472 78.0001C472 74.0001 468.108 70.8721 468.085 70.8501C466.833 73.3931 466.381 75.1683 466.258 78.0001H463.844C463.964 74.8931 464.889 72.8458 466.258 70.0541C465.818 70.0111 465.373 70.0654 464.956 70.2129C464.539 70.3605 464.159 70.5978 463.844 70.9081C461.943 72.8481 460 75.2071 460 78.0001C460.003 79.4166 460.506 80.7866 461.421 81.8681C462.336 82.9495 463.603 83.6728 465 83.9101V90.6721C464.206 88.6825 462.829 86.9801 461.048 85.7891C459.268 84.5981 457.169 83.9743 455.027 84.0001H454L454.127 85.1241C454.923 92.1451 461.5 94.0001 464.86 94.0001H467.14C470.505 94.0001 477.076 92.1451 477.871 85.1241L478 84.0001H476.973Z" fill="#457938"/>
</g>
<path d="M562.48 41.6C562.48 46.8053 561.285 51.584 558.896 55.936C556.507 60.2027 552.837 63.6587 547.888 66.304C542.939 68.9493 536.795 70.272 529.456 70.272H515.888V102.528H494V12.672H529.456C536.624 12.672 542.683 13.9093 547.632 16.384C552.581 18.8587 556.293 22.272 558.768 26.624C561.243 30.976 562.48 35.968 562.48 41.6ZM527.792 52.864C531.973 52.864 535.088 51.8827 537.136 49.92C539.184 47.9573 540.208 45.184 540.208 41.6C540.208 38.016 539.184 35.2427 537.136 33.28C535.088 31.3173 531.973 30.336 527.792 30.336H515.888V52.864H527.792Z" fill="#9D6A52"/>
<path d="M569.523 66.688C569.523 59.3493 570.888 52.9067 573.619 47.36C576.435 41.8133 580.232 37.5467 585.011 34.56C589.79 31.5733 595.123 30.08 601.011 30.08C606.046 30.08 610.44 31.104 614.195 33.152C618.035 35.2 620.979 37.888 623.027 41.216V31.104H644.915V102.528H623.027V92.416C620.894 95.744 617.907 98.432 614.067 100.48C610.312 102.528 605.918 103.552 600.883 103.552C595.08 103.552 589.79 102.059 585.011 99.072C580.232 96 576.435 91.6907 573.619 86.144C570.888 80.512 569.523 74.0267 569.523 66.688ZM623.027 66.816C623.027 61.3547 621.491 57.0453 618.419 53.888C615.432 50.7307 611.763 49.152 607.411 49.152C603.059 49.152 599.347 50.7307 596.275 53.888C593.288 56.96 591.795 61.2267 591.795 66.688C591.795 72.1493 593.288 76.5013 596.275 79.744C599.347 82.9013 603.059 84.48 607.411 84.48C611.763 84.48 615.432 82.9013 618.419 79.744C621.491 76.5867 623.027 72.2773 623.027 66.816Z" fill="#9D6A52"/>
<path d="M700.558 83.968V102.528H689.422C681.486 102.528 675.299 100.608 670.862 96.768C666.425 92.8427 664.206 86.4853 664.206 77.696V49.28H655.502V31.104H664.206V13.696H686.094V31.104H700.43V49.28H686.094V77.952C686.094 80.0853 686.606 81.6213 687.63 82.56C688.654 83.4987 690.361 83.968 692.75 83.968H700.558Z" fill="#9D6A52"/>
<path d="M756.654 30.336C764.846 30.336 771.417 33.0667 776.366 38.528C781.315 43.904 783.79 51.328 783.79 60.8V102.528H762.03V63.744C762.03 58.9653 760.793 55.2533 758.318 52.608C755.843 49.9627 752.515 48.64 748.334 48.64C744.153 48.64 740.825 49.9627 738.35 52.608C735.875 55.2533 734.638 58.9653 734.638 63.744V102.528H712.75V7.80801H734.638V40.704C736.857 37.5467 739.886 35.0293 743.726 33.152C747.566 31.2747 751.875 30.336 756.654 30.336Z" fill="#9D6A52"/>
<path d="M810.008 23.68C806.168 23.68 803.011 22.5707 800.536 20.352C798.147 18.048 796.952 15.232 796.952 11.904C796.952 8.49067 798.147 5.67467 800.536 3.456C803.011 1.152 806.168 0 810.008 0C813.763 0 816.835 1.152 819.224 3.456C821.699 5.67467 822.936 8.49067 822.936 11.904C822.936 15.232 821.699 18.048 819.224 20.352C816.835 22.5707 813.763 23.68 810.008 23.68ZM820.888 31.104V102.528H799V31.104H820.888Z" fill="#9D6A52"/>
<path d="M904.078 65.664C904.078 67.712 903.95 69.8453 903.694 72.064H854.158C854.499 76.5013 855.907 79.9147 858.382 82.304C860.942 84.608 864.057 85.76 867.726 85.76C873.187 85.76 876.985 83.456 879.118 78.848H902.414C901.219 83.5413 899.043 87.7653 895.886 91.52C892.814 95.2747 888.931 98.2187 884.238 100.352C879.545 102.485 874.297 103.552 868.494 103.552C861.497 103.552 855.267 102.059 849.806 99.072C844.345 96.0853 840.078 91.8187 837.006 86.272C833.934 80.7253 832.398 74.24 832.398 66.816C832.398 59.392 833.891 52.9067 836.878 47.36C839.95 41.8133 844.217 37.5467 849.678 34.56C855.139 31.5733 861.411 30.08 868.494 30.08C875.406 30.08 881.55 31.5307 886.926 34.432C892.302 37.3333 896.483 41.472 899.47 46.848C902.542 52.224 904.078 58.496 904.078 65.664ZM881.678 59.904C881.678 56.1493 880.398 53.1627 877.838 50.944C875.278 48.7253 872.078 47.616 868.238 47.616C864.569 47.616 861.454 48.6827 858.894 50.816C856.419 52.9493 854.883 55.9787 854.286 59.904H881.678Z" fill="#9D6A52"/>
<path fill-rule="evenodd" clip-rule="evenodd" d="M453.053 92C453.24 95.3346 454.443 98.0965 456.661 100.286C459.177 102.762 462.253 104 465.887 104C469.615 104 472.737 102.762 475.253 100.286C477.557 98.0965 478.806 95.3346 479 92L453.053 92Z" fill="#9D6A52"/>
<defs>
<clipPath id="clip0_133_54">
<rect width="24" height="24" fill="white" transform="translate(454 70)"/>
</clipPath>
</defs>
</svg>
