<svg width="31" height="59" viewBox="0 0 31 59" fill="none" xmlns="http://www.w3.org/2000/svg">
<path d="M0.944182 55.2876C0.943533 54.8034 1.03878 54.3238 1.22443 53.8765C1.41008 53.4293 1.68246 53.0232 2.02585 52.6818L20.8862 33.819C21.457 33.2483 21.9099 32.5707 22.2188 31.825C22.5278 31.0792 22.6868 30.2799 22.6868 29.4727C22.6868 28.6655 22.5278 27.8661 22.2188 27.1204C21.9099 26.3746 21.457 25.6971 20.8862 25.1263L2.05043 6.29305C1.69824 5.95289 1.41732 5.546 1.22406 5.09611C1.0308 4.64622 0.929077 4.16234 0.924822 3.67272C0.920567 3.1831 1.01387 2.69753 1.19928 2.24435C1.38469 1.79117 1.6585 1.37945 2.00472 1.03322C2.35095 0.686993 2.76267 0.413183 3.21585 0.227772C3.66903 0.0423617 4.1546 -0.0509375 4.64422 -0.0466828C5.13384 -0.0424281 5.61772 0.0592951 6.0676 0.252553C6.51749 0.445811 6.92439 0.726731 7.26455 1.07892L26.1003 19.9122C28.6328 22.4494 30.0551 25.8878 30.0551 29.4727C30.0551 33.0575 28.6328 36.4959 26.1003 39.0331L7.23997 57.8959C6.72425 58.412 6.06706 58.7634 5.35153 58.9059C4.63601 59.0483 3.89432 58.9753 3.22031 58.696C2.5463 58.4168 1.97027 57.9439 1.5651 57.3372C1.15994 56.7305 0.943852 56.0172 0.944182 55.2876V55.2876Z" fill="white"/>
</svg>
