<svg xmlns="http://www.w3.org/2000/svg" viewBox="0 0 461.02 268.6"><defs><style>.cls-1{fill:#222c3b;}.cls-2{fill:#457938;}.cls-3{fill:#66915b;}.cls-4{fill:#1a1a1a;}.cls-5{fill:#dcdcdc;}.cls-6{fill:#919191;}.cls-7{fill:#f8fdf7;}.cls-8{fill:#9d6a52;}.cls-9{fill:#f29983;}.cls-10{fill:#212221;}.cls-11{fill:#534741;}.cls-12{fill:#fff;}.cls-13{fill:#f16d53;}.cls-14{fill:#f2f2f2;}.cls-15{fill:none;stroke:#534741;stroke-linecap:round;stroke-linejoin:round;stroke-width:1.03px;}.cls-16{fill:#ff7bac;opacity:0.6;}.cls-17{fill:#415f8c;}.cls-18{fill:#991b1b;}.cls-19{fill:#e02222;}.cls-20{fill:#27332f;opacity:0.3;}</style></defs><g id="Layer_2" data-name="Layer 2"><g id="objects"><path class="cls-1" d="M47.44,0H413.58a12,12,0,0,1,12,12V243.51a0,0,0,0,1,0,0H35.44a0,0,0,0,1,0,0V12a12,12,0,0,1,12-12Z"/><rect class="cls-2" x="45.04" y="14.88" width="370.94" height="216.65"/><rect class="cls-3" x="45.04" y="196.28" width="370.94" height="35.25"/><path class="cls-4" d="M234.78,7.82a4.27,4.27,0,1,1-4.27-4.27A4.27,4.27,0,0,1,234.78,7.82Z"/><polygon class="cls-4" points="26.57 240.42 13.49 240.42 12.57 243.15 27.26 243.15 26.57 240.42"/><polygon class="cls-4" points="42.65 240.42 29.56 240.42 28.64 243.15 43.34 243.15 42.65 240.42"/><polygon class="cls-4" points="58.72 240.42 45.64 240.42 44.72 243.15 59.41 243.15 58.72 240.42"/><polygon class="cls-4" points="74.8 240.42 61.71 240.42 60.79 243.15 75.49 243.15 74.8 240.42"/><polygon class="cls-4" points="90.87 240.42 77.79 240.42 76.87 243.15 91.56 243.15 90.87 240.42"/><polygon class="cls-4" points="106.95 240.42 93.86 240.42 92.94 243.15 107.64 243.15 106.95 240.42"/><polygon class="cls-4" points="123.02 240.42 109.94 240.42 109.02 243.15 123.71 243.15 123.02 240.42"/><polygon class="cls-4" points="139.1 240.42 126.01 240.42 125.09 243.15 139.79 243.15 139.1 240.42"/><polygon class="cls-4" points="155.17 240.42 142.09 240.42 141.17 243.15 155.86 243.15 155.17 240.42"/><polygon class="cls-4" points="171.25 240.42 158.16 240.42 157.24 243.15 171.94 243.15 171.25 240.42"/><polygon class="cls-4" points="187.32 240.42 174.24 240.42 173.31 243.15 188.01 243.15 187.32 240.42"/><polygon class="cls-4" points="203.4 240.42 190.31 240.42 189.39 243.15 204.09 243.15 203.4 240.42"/><polygon class="cls-4" points="219.47 240.42 206.38 240.42 205.47 243.15 220.16 243.15 219.47 240.42"/><polygon class="cls-4" points="235.55 240.42 222.46 240.42 221.54 243.15 236.24 243.15 235.55 240.42"/><polygon class="cls-4" points="251.62 240.42 238.53 240.42 237.61 243.15 252.31 243.15 251.62 240.42"/><polygon class="cls-4" points="267.69 240.42 254.61 240.42 253.69 243.15 268.38 243.15 267.69 240.42"/><polygon class="cls-4" points="283.77 240.42 270.68 240.42 269.76 243.15 284.46 243.15 283.77 240.42"/><polygon class="cls-4" points="299.85 240.42 286.76 240.42 285.84 243.15 300.53 243.15 299.85 240.42"/><polygon class="cls-4" points="315.92 240.42 302.83 240.42 301.91 243.15 316.61 243.15 315.92 240.42"/><polygon class="cls-4" points="332 240.42 318.91 240.42 317.99 243.15 332.68 243.15 332 240.42"/><polygon class="cls-4" points="348.07 240.42 334.98 240.42 334.06 243.15 348.76 243.15 348.07 240.42"/><polygon class="cls-4" points="364.14 240.42 351.06 240.42 350.14 243.15 364.83 243.15 364.14 240.42"/><polygon class="cls-4" points="380.22 240.42 367.13 240.42 366.21 243.15 380.91 243.15 380.22 240.42"/><polygon class="cls-4" points="396.29 240.42 383.21 240.42 382.29 243.15 396.98 243.15 396.29 240.42"/><polygon class="cls-4" points="412.37 240.42 399.28 240.42 398.36 243.15 413.06 243.15 412.37 240.42"/><polygon class="cls-4" points="428.44 240.42 415.36 240.42 414.44 243.15 429.13 243.15 428.44 240.42"/><polygon class="cls-4" points="444.52 240.42 431.43 240.42 430.51 243.15 445.21 243.15 444.52 240.42"/><rect class="cls-5" y="243.15" width="461.02" height="15.64"/><path class="cls-6" d="M399,268.6H61.26c-15.82,0-31.54-.61-46.65-5.29L0,258.79H461l-17.44,5.14C429.1,268.2,414.08,268.6,399,268.6Z"/><path class="cls-6" d="M182.79,243.15h95.43a0,0,0,0,1,0,0v0a7.82,7.82,0,0,1-7.82,7.82H190.61a7.82,7.82,0,0,1-7.82-7.82v0A0,0,0,0,1,182.79,243.15Z"/><rect class="cls-7" x="51.06" y="107.18" width="117.09" height="81.08"/><rect class="cls-8" x="51.06" y="170.97" width="117.09" height="17.28"/><path class="cls-9" d="M93.48,142.09a4.28,4.28,0,1,1-4.28-4.27A4.28,4.28,0,0,1,93.48,142.09Z"/><path class="cls-9" d="M125.71,142.09a4.28,4.28,0,1,0,4.28-4.27A4.28,4.28,0,0,0,125.71,142.09Z"/><path class="cls-10" d="M132.72,188.25H86.46c3.06-17.41,8.33-22.37,17.39-23.82a33.81,33.81,0,0,1,5.8-.47,39.49,39.49,0,0,1,5.69.41C124.44,165.82,129.77,170.84,132.72,188.25Z"/><rect class="cls-9" x="91.26" y="114.6" width="36.68" height="45.51" rx="18.34"/><path class="cls-9" d="M109.6,172.66h0a5.65,5.65,0,0,1-5.77-5.63v-14.5h11.53V167A5.65,5.65,0,0,1,109.6,172.66Z"/><path class="cls-11" d="M105.59,140.2a1.75,1.75,0,1,1-1.75-1.76A1.75,1.75,0,0,1,105.59,140.2Z"/><path class="cls-11" d="M117.11,140.2a1.76,1.76,0,1,1-1.76-1.76A1.76,1.76,0,0,1,117.11,140.2Z"/><path class="cls-12" d="M113.48,150.79a3.89,3.89,0,1,1-3.89-3.89A3.89,3.89,0,0,1,113.48,150.79Z"/><path class="cls-13" d="M109.6,172.66a7.42,7.42,0,0,0-3.76,2,7.26,7.26,0,0,0,2.17,4.27h3.17a7.26,7.26,0,0,0,2.17-4.27A7.41,7.41,0,0,0,109.6,172.66Z"/><polygon class="cls-13" points="113.05 188.25 111.18 178.91 109.6 178.91 109.23 178.91 108.01 178.91 106.14 188.25 109.59 188.25 109.59 188.11 109.6 188.25 113.05 188.25"/><path class="cls-14" d="M103.85,164.05s.4,6.69,5.75,8.61c0,0-4.09.64-5.22,4.48a13.1,13.1,0,0,1-2.29-12.74Z"/><path class="cls-14" d="M115.34,164.05s-.4,6.69-5.74,8.61c0,0,4.08.64,5.22,4.48a13.13,13.13,0,0,0,2.29-12.74Z"/><rect class="cls-14" x="171.97" y="22.25" width="117.09" height="81.08"/><path class="cls-11" d="M252.66,41.26c0,.55,0,1.14,0,1.69a20.64,20.64,0,0,1-2.13,7.82,18.69,18.69,0,0,1-2.43,4,10.89,10.89,0,0,1-1.38,1.64,21.91,21.91,0,0,1-16.14,7,21,21,0,0,1-6.34-.94,22,22,0,0,1-9.85-6.09A11,11,0,0,1,213,54.73a19.11,19.11,0,0,1-2.43-4A19.08,19.08,0,0,1,208.69,45a15.11,15.11,0,0,1-.3-2.08c0-.55,0-1.14,0-1.69s0-.94,0-1.38a22,22,0,0,1,10.85-17.63h22.58A22,22,0,0,1,252.66,41.26Z"/><path class="cls-11" d="M252.66,43V91.27c.05,0,.05,0,0,0H208.35V43Z"/><path class="cls-9" d="M214.1,57.77A4.09,4.09,0,1,1,210,53.68,4.09,4.09,0,0,1,214.1,57.77Z"/><path class="cls-9" d="M246.92,57.77A4.09,4.09,0,1,0,251,53.68,4.09,4.09,0,0,0,246.92,57.77Z"/><path class="cls-11" d="M214.35,40h-3.83V55.26a3.83,3.83,0,0,0,3.83,3.82h0Z"/><path class="cls-11" d="M246.67,40h3.83V55.26a3.83,3.83,0,0,1-3.83,3.82h0Z"/><path class="cls-10" d="M257.21,103.33H203.79c3.52-16.7,9.61-22.43,20.05-24.1a38.78,38.78,0,0,1,6.69-.53,38,38,0,0,1,6.62.53C247.6,80.84,255.64,87.14,257.21,103.33Z"/><path class="cls-9" d="M230.51,75h0A17.55,17.55,0,0,1,213,57.46V49a17.54,17.54,0,0,1,17.55-17.54h0A17.54,17.54,0,0,1,248.06,49v8.45A17.55,17.55,0,0,1,230.51,75Z"/><path class="cls-9" d="M230.51,87.14h0A5.51,5.51,0,0,1,225,81.63V67.76h11V81.63A5.51,5.51,0,0,1,230.51,87.14Z"/><path class="cls-11" d="M226.68,56A1.68,1.68,0,1,1,225,54.28,1.68,1.68,0,0,1,226.68,56Z"/><path class="cls-11" d="M237.7,56A1.68,1.68,0,1,1,236,54.28,1.68,1.68,0,0,1,237.7,56Z"/><path class="cls-15" d="M224.12,62.37a6.6,6.6,0,0,0,12.78,0"/><path class="cls-11" d="M220.41,42.15a6.23,6.23,0,1,1-6.23-6.23A6.22,6.22,0,0,1,220.41,42.15Z"/><path class="cls-11" d="M252.66,41.27c0,4.41-8,8-17.86,8S217,45.68,217,41.27s8-13.84,17.85-13.84S252.66,36.87,252.66,41.27Z"/><path class="cls-11" d="M235.44,30.59a8,8,0,1,1-8-8A8,8,0,0,1,235.44,30.59Z"/><path class="cls-11" d="M224.49,35.42a7,7,0,1,1-7-7A7,7,0,0,1,224.49,35.42Z"/><path class="cls-11" d="M246.92,35.44A5.45,5.45,0,1,1,241.47,30,5.45,5.45,0,0,1,246.92,35.44Z"/><path class="cls-8" d="M224.85,78.7c-5.78,0-5.55,11.51,1.13,14L230.51,87Z"/><path class="cls-8" d="M236.17,78.7c5.78,0,5.55,11.51-1.13,14L230.51,87Z"/><path class="cls-16" d="M221.89,58.67c0,.9-1.21,1.62-2.71,1.62s-2.72-.72-2.72-1.62S217.68,57,219.18,57,221.89,57.77,221.89,58.67Z"/><path class="cls-16" d="M244.53,58.67c0,.9-1.21,1.62-2.71,1.62s-2.71-.72-2.71-1.62S240.32,57,241.82,57,244.53,57.77,244.53,58.67Z"/><rect class="cls-8" x="51.06" y="22.25" width="117.09" height="81.08"/><path class="cls-9" d="M80.82,57.77a4.09,4.09,0,1,1-4.09-4.09A4.09,4.09,0,0,1,80.82,57.77Z"/><path class="cls-9" d="M113.64,57.77a4.1,4.1,0,1,0,4.09-4.09A4.09,4.09,0,0,0,113.64,57.77Z"/><path class="cls-11" d="M81.07,40H77.25V55.26a3.82,3.82,0,0,0,3.82,3.82h0Z"/><path class="cls-11" d="M113.39,40h3.83V55.26a3.82,3.82,0,0,1-3.83,3.82h0Z"/><path class="cls-10" d="M119.36,103.33H75.1c2.92-18,8-22.8,16.63-24.19a32.11,32.11,0,0,1,5.55-.44,36.35,36.35,0,0,1,5.45.39C111.44,80.48,116.54,85.28,119.36,103.33Z"/><path class="cls-9" d="M97.23,75h0A17.55,17.55,0,0,1,79.68,57.46V49A17.54,17.54,0,0,1,97.23,31.47h0A17.54,17.54,0,0,1,114.78,49v8.45A17.55,17.55,0,0,1,97.23,75Z"/><path class="cls-9" d="M97.23,87.14h0a5.51,5.51,0,0,1-5.51-5.51V67.76h11V81.63A5.52,5.52,0,0,1,97.23,87.14Z"/><path class="cls-11" d="M93.4,56a1.68,1.68,0,1,1-1.68-1.68A1.68,1.68,0,0,1,93.4,56Z"/><path class="cls-11" d="M104.42,56a1.68,1.68,0,1,1-1.68-1.68A1.68,1.68,0,0,1,104.42,56Z"/><path class="cls-12" d="M97.23,62.72A19.65,19.65,0,0,1,92,62a1,1,0,0,0-1.11,1.4,6.61,6.61,0,0,0,12.79,0,1,1,0,0,0-1.11-1.4A19.72,19.72,0,0,1,97.23,62.72Z"/><path class="cls-11" d="M87.13,42.15a6.23,6.23,0,1,1-6.22-6.23A6.21,6.21,0,0,1,87.13,42.15Z"/><path class="cls-11" d="M109.76,32.75a3.21,3.21,0,0,1-.05.69,9.31,9.31,0,0,1-.45,2.87,13.48,13.48,0,0,1-2.18,4.51,14.23,14.23,0,0,1-3.17,3.07,13.48,13.48,0,0,1-7.62,2.33,13.28,13.28,0,0,1-9.21-3.67,4.82,4.82,0,0,1-.54-.59,12.74,12.74,0,0,1-2.73-4.21c-.15-.45-.29-.84-.44-1.29a15.09,15.09,0,0,1-.5-3.71,13.35,13.35,0,0,1,.7-4.26,13.68,13.68,0,0,1,4.35-6.24h16.74a13.08,13.08,0,0,1,4.85,7.92A14.65,14.65,0,0,1,109.76,32.75Z"/><path class="cls-11" d="M119.38,41.27a8,8,0,1,1-8-8A8,8,0,0,1,119.38,41.27Z"/><path class="cls-11" d="M91.21,35.42a7,7,0,1,1-7-7A7,7,0,0,1,91.21,35.42Z"/><path class="cls-11" d="M113.64,35.44A5.45,5.45,0,1,1,108.19,30,5.45,5.45,0,0,1,113.64,35.44Z"/><path class="cls-9" d="M148.09,85.75l-8.93,4a2.51,2.51,0,0,1-3.1-1.73h0a2.52,2.52,0,0,1,1.74-3.1l8.93-4a2.51,2.51,0,0,1,3.09,1.74h0A2.5,2.5,0,0,1,148.09,85.75Z"/><rect class="cls-17" x="141.15" y="71.61" width="4.81" height="19.5" transform="translate(-21.45 82.38) rotate(-29.9)"/><polygon class="cls-9" points="151.49 95.16 146.33 91.01 150.5 88.61 151.49 95.16"/><polygon class="cls-17" points="151.49 95.16 150.04 94 151.22 93.37 151.49 95.16"/><path class="cls-9" d="M140.75,88.4l-5.67,10.09a2.5,2.5,0,0,1-3.41,1h0a2.5,2.5,0,0,1-1-3.41l5.66-10.1a2.51,2.51,0,0,1,3.42-1h0A2.51,2.51,0,0,1,140.75,88.4Z"/><path class="cls-9" d="M143.42,81l-4,7.22a1.87,1.87,0,0,1-2.54.72h0a1.88,1.88,0,0,1-.72-2.55l4-7.22a1.87,1.87,0,0,1,2.55-.71h0A1.86,1.86,0,0,1,143.42,81Z"/><polygon class="cls-10" points="117.28 103.33 105.8 95.12 110.8 82.44 127.81 93.98 134.16 86.14 144.84 94.77 137.92 103.33 117.28 103.33"/><rect class="cls-7" x="292.88" y="22.25" width="117.09" height="81.08"/><rect class="cls-8" x="292.88" y="22.25" width="53.58" height="53.58"/><rect class="cls-14" x="311.52" y="40.89" width="28.92" height="28.92"/><rect class="cls-14" x="292.88" y="40.89" width="12.13" height="28.92"/><rect class="cls-14" x="311.52" y="22.25" width="28.92" height="13.67"/><rect class="cls-14" x="292.88" y="22.25" width="12.13" height="13.67"/><rect class="cls-7" x="171.97" y="107.18" width="117.09" height="81.08"/><rect class="cls-7" x="292.88" y="107.18" width="117.09" height="81.08"/><rect class="cls-17" x="292.88" y="122.93" width="24.27" height="22.45"/><rect class="cls-11" x="319.67" y="122.93" width="17.72" height="1.95"/><rect class="cls-11" x="319.67" y="126.83" width="17.72" height="1.95"/><rect class="cls-11" x="319.67" y="130.73" width="17.72" height="1.95"/><rect class="cls-11" x="319.67" y="134.63" width="17.72" height="1.95"/><rect class="cls-11" x="319.67" y="138.53" width="17.72" height="1.95"/><rect class="cls-11" x="319.67" y="142.43" width="7.49" height="1.95"/><circle class="cls-12" cx="131.92" cy="213.91" r="11.92" transform="translate(-112.62 155.93) rotate(-45)"/><rect class="cls-3" x="126.43" y="209.66" width="8.48" height="8.48" rx="1.36"/><path class="cls-3" d="M137.3,216.87l-1.35-.78a.65.65,0,0,1-.32-.57v-3.23a.65.65,0,0,1,.32-.57l1.35-.78a.66.66,0,0,1,1,.57v4.79A.66.66,0,0,1,137.3,216.87Z"/><circle class="cls-12" cx="62.98" cy="213.91" r="11.92" transform="translate(-159.67 226.05) rotate(-76.72)"/><circle class="cls-2" cx="62.98" cy="210.19" r="2.77"/><path class="cls-2" d="M66.51,218.29c0,2-1.58,2.1-3.53,2.1s-3.54-.15-3.54-2.1,1.58-5,3.54-5S66.51,216.33,66.51,218.29Z"/><circle class="cls-12" cx="165.77" cy="213.91" r="11.92" transform="translate(-68.84 79.02) rotate(-22.33)"/><path class="cls-3" d="M165.77,215.48h0a2,2,0,0,1-2-2v-3.92a2,2,0,0,1,2-2h0a2,2,0,0,1,2,2v3.92A2,2,0,0,1,165.77,215.48Z"/><rect class="cls-3" x="165.34" y="216.78" width="0.88" height="3.5"/><path class="cls-3" d="M165.77,217.22a3.67,3.67,0,0,1-3.67-3.67v-1.61h-.28v-.88H163v2.49a2.8,2.8,0,1,0,5.59,0l0-2.49h1.19v.88h-.3l0,1.61A3.67,3.67,0,0,1,165.77,217.22Z"/><circle class="cls-18" cx="398.04" cy="213.91" r="11.92" transform="translate(-27.91 364.75) rotate(-47.75)"/><path class="cls-12" d="M404.6,213.16c-1.09-1.09-4.44-2.18-6.57-2.17s-5.46,1.1-6.56,2.2c0,0-.54,2.73,0,3.28s3.83.54,3.83-.56-.55-1.64,0-2.18,1.64-.56,2.74-.56,2.19,0,2.73.55,0,1.09,0,2.18,3.28,1.09,3.83.54S404.6,213.16,404.6,213.16Z"/><circle class="cls-12" cx="97.74" cy="213.91" r="11.92" transform="translate(-122.63 131.77) rotate(-45)"/><path class="cls-3" d="M96.57,218l-1.87-1.07a.93.93,0,0,1-.45-.79v-4.49a.93.93,0,0,1,.45-.79l1.87-1.07a.9.9,0,0,1,1.36.78v6.65A.9.9,0,0,1,96.57,218Z"/><path class="cls-3" d="M99.61,216.6a3.23,3.23,0,0,0,0-5.39"/><path class="cls-3" d="M99.61,218.64a5.06,5.06,0,0,0,0-9.47"/><path class="cls-3" d="M99.61,220.21a6.55,6.55,0,0,0,0-12.61"/><rect class="cls-3" x="91.11" y="211.21" width="2.57" height="5.4"/><circle class="cls-12" cx="363.86" cy="213.91" r="11.92" transform="translate(-53.98 154.28) rotate(-22.33)"/><path class="cls-3" d="M366.27,208.4c2.49,0,4.51,1.41,4.51,3.14a3.09,3.09,0,0,1-2.09,2.64l-.51.23,0,.55a2.31,2.31,0,0,1-.06.57,2.16,2.16,0,0,0-.13-.41l-.25-.58-.63.08a6.44,6.44,0,0,1-.86.06c-2.48,0-4.5-1.41-4.5-3.14s2-3.14,4.5-3.14m0-.84c-2.94,0-5.34,1.78-5.34,4s2.4,4,5.34,4a7.5,7.5,0,0,0,1-.07,2.88,2.88,0,0,1-.34,2.28,2.73,2.73,0,0,0,2.13-2.79,3.91,3.91,0,0,0,2.59-3.4c0-2.2-2.4-4-5.35-4Z"/><path class="cls-3" d="M364.52,211.94a.54.54,0,0,1-.54.54.54.54,0,1,1,0-1.08A.54.54,0,0,1,364.52,211.94Z"/><path class="cls-3" d="M366.82,211.94a.55.55,0,0,1-.55.54.54.54,0,1,1,0-1.08A.55.55,0,0,1,366.82,211.94Z"/><path class="cls-3" d="M369.12,211.94a.55.55,0,0,1-.55.54.54.54,0,0,1,0-1.08A.55.55,0,0,1,369.12,211.94Z"/><path class="cls-3" d="M360.76,211.4c-2.57,0-4.65,1.55-4.65,3.46a3.43,3.43,0,0,0,2.25,3,2.39,2.39,0,0,0,1.86,2.43,2.53,2.53,0,0,1-.3-2,5.73,5.73,0,0,0,.84.06c2.57,0,4.65-1.55,4.65-3.46S363.33,211.4,360.76,211.4Zm-2.3,4.88a.54.54,0,1,1,0-1.08.54.54,0,1,1,0,1.08Zm2.3,0a.54.54,0,1,1,0-1.08.54.54,0,1,1,0,1.08Zm2.3,0a.54.54,0,1,1,.54-.54A.54.54,0,0,1,363.06,216.28Z"/><circle class="cls-9" cx="350.55" cy="142.7" r="4.09"/><path class="cls-9" d="M387.46,142.7a4.09,4.09,0,1,0,4.09-4.09A4.09,4.09,0,0,0,387.46,142.7Z"/><path class="cls-11" d="M354.89,124.88h0a3.83,3.83,0,0,0-3.83,3.82v11.48a3.84,3.84,0,0,0,3.83,3.83h0Z"/><path class="cls-11" d="M387.21,124.88h0A3.83,3.83,0,0,1,391,128.7v11.48a3.84,3.84,0,0,1-3.83,3.83h0Z"/><path class="cls-10" d="M377.29,164.15l-.75-.13a36,36,0,0,0-5.44-.4,32.07,32.07,0,0,0-5.55.45l-.75.13v24.05h12.49Z"/><path class="cls-14" d="M376.7,188.25h16.48c-2.81-17.94-7.86-22.79-16.48-24.21Z"/><path class="cls-14" d="M365.4,164.09c-8.57,1.42-13.58,6.22-16.48,24.16H365.4Z"/><path class="cls-9" d="M371.05,159.94h0a17.55,17.55,0,0,1-17.55-17.55v-8.45c0-9.69,2.32-17.55,17.55-17.55s17.55,7.86,17.55,17.55v8.45A17.55,17.55,0,0,1,371.05,159.94Z"/><path class="cls-9" d="M371.05,172.07h0a5.52,5.52,0,0,1-5.51-5.52V152.69h11v13.86A5.51,5.51,0,0,1,371.05,172.07Z"/><path class="cls-11" d="M367.22,140.88a1.68,1.68,0,1,1-1.68-1.67A1.68,1.68,0,0,1,367.22,140.88Z"/><path class="cls-11" d="M378.24,140.88a1.68,1.68,0,1,1-1.68-1.67A1.68,1.68,0,0,1,378.24,140.88Z"/><path class="cls-12" d="M371.05,147.64a19.33,19.33,0,0,1-5.29-.71,1,1,0,0,0-1.1,1.4,6.6,6.6,0,0,0,12.78,0,1,1,0,0,0-1.1-1.4A19.33,19.33,0,0,1,371.05,147.64Z"/><path class="cls-11" d="M214.56,127.55a3.42,3.42,0,0,1,.06-.78,10.43,10.43,0,0,1,.5-3.23,15.29,15.29,0,0,1,2.45-5.07,15.86,15.86,0,0,1,3.57-3.46,15.18,15.18,0,0,1,8.58-2.62,14.94,14.94,0,0,1,10.37,4.13,5.36,5.36,0,0,1,.61.67,14.15,14.15,0,0,1,3.07,4.73l.5,1.45a16.93,16.93,0,0,1,.56,4.18,15.23,15.23,0,0,1-.78,4.8,15.38,15.38,0,0,1-4.91,7H220.3a14.69,14.69,0,0,1-5.46-8.92A16.2,16.2,0,0,1,214.56,127.55Z"/><path class="cls-11" d="M224.31,165.24a7.87,7.87,0,1,1-7.86-7.86A7.86,7.86,0,0,1,224.31,165.24Z"/><path class="cls-11" d="M230.47,165.81a7,7,0,1,1-7-7A7,7,0,0,1,230.47,165.81Z"/><path class="cls-11" d="M218,158.23a7,7,0,1,1-7-7A7,7,0,0,1,218,158.23Z"/><path class="cls-11" d="M248.53,152.91a7.86,7.86,0,1,1-7.86,7.86A7.86,7.86,0,0,1,248.53,152.91Z"/><path class="cls-11" d="M249,144.21a7,7,0,1,1-7,7A7,7,0,0,1,249,144.21Z"/><path class="cls-11" d="M240.67,160a7,7,0,1,1-7,7A7,7,0,0,1,240.67,160Z"/><path class="cls-11" d="M220.7,161.73a6.14,6.14,0,1,1-6.14-6.13A6.14,6.14,0,0,1,220.7,161.73Z"/><path class="cls-11" d="M230,145.61a3.42,3.42,0,0,1-.06.78,10.73,10.73,0,0,1-.5,3.23,15.29,15.29,0,0,1-2.45,5.07,16.29,16.29,0,0,1-3.57,3.46,15.18,15.18,0,0,1-8.58,2.62,15,15,0,0,1-10.37-4.12,7.45,7.45,0,0,1-.62-.67,14.27,14.27,0,0,1-3.06-4.74c-.17-.5-.34-1-.5-1.45a16.93,16.93,0,0,1-.56-4.18,15.28,15.28,0,0,1,.78-4.8,15.44,15.44,0,0,1,4.91-7h18.84a14.77,14.77,0,0,1,5.46,8.92A16.29,16.29,0,0,1,230,145.61Z"/><path class="cls-11" d="M261.27,145.61a3.42,3.42,0,0,1-.06.78,10.43,10.43,0,0,1-.5,3.23,15.29,15.29,0,0,1-2.45,5.07,16.08,16.08,0,0,1-3.57,3.46,15.18,15.18,0,0,1-8.58,2.62,15,15,0,0,1-10.37-4.12,7.27,7.27,0,0,1-.61-.67,14.14,14.14,0,0,1-3.07-4.74l-.5-1.45a16.93,16.93,0,0,1-.56-4.18,15.28,15.28,0,0,1,.78-4.8,15.44,15.44,0,0,1,4.91-7h18.84a14.77,14.77,0,0,1,5.46,8.92A16.29,16.29,0,0,1,261.27,145.61Z"/><path class="cls-9" d="M212.25,150.48a4.61,4.61,0,1,1-4.6-4.6A4.6,4.6,0,0,1,212.25,150.48Z"/><path class="cls-9" d="M249.2,150.48a4.61,4.61,0,1,0,4.61-4.6A4.61,4.61,0,0,0,249.2,150.48Z"/><path class="cls-11" d="M212.53,130.42h-4.3v17.23a4.31,4.31,0,0,0,4.3,4.31h0Z"/><path class="cls-11" d="M248.92,130.42h4.31v17.23a4.31,4.31,0,0,1-4.31,4.31h0Z"/><path class="cls-14" d="M255.64,188.25H205.81c3.29-6.8,9-12.15,18.73-13.71a36.7,36.7,0,0,1,6.24-.5,40.89,40.89,0,0,1,6.13.45C246.72,176.05,252.46,181.45,255.64,188.25Z"/><path class="cls-8" d="M237,174.51l-.1,0a40.89,40.89,0,0,0-6.13-.45,36.7,36.7,0,0,0-6.24.5l-.08,0v13.69H237Z"/><path class="cls-9" d="M230.73,169.89h0A19.76,19.76,0,0,1,211,150.14v-9.52a19.76,19.76,0,0,1,19.76-19.75h0a19.76,19.76,0,0,1,19.76,19.75v9.52A19.76,19.76,0,0,1,230.73,169.89Z"/><path class="cls-9" d="M230.73,183.55h0a6.21,6.21,0,0,1-6.21-6.21V161.73h12.41v15.61A6.2,6.2,0,0,1,230.73,183.55Z"/><path class="cls-11" d="M226.41,148.44a1.89,1.89,0,1,1-1.88-1.89A1.89,1.89,0,0,1,226.41,148.44Z"/><path class="cls-11" d="M238.82,148.44a1.89,1.89,0,1,1-1.89-1.89A1.89,1.89,0,0,1,238.82,148.44Z"/><path class="cls-12" d="M230.73,156.05a22,22,0,0,1-5.95-.8,1.15,1.15,0,0,0-1.25,1.58,7.45,7.45,0,0,0,14.4,0,1.15,1.15,0,0,0-1.25-1.58A22.06,22.06,0,0,1,230.73,156.05Z"/><path class="cls-11" d="M219.36,132.89a7,7,0,1,1-7-7A7,7,0,0,1,219.36,132.89Z"/><path class="cls-11" d="M241.05,129.32a11.58,11.58,0,1,1-11.58-11.57A11.57,11.57,0,0,1,241.05,129.32Z"/><path class="cls-11" d="M255.66,131.91a9,9,0,1,1-9-9A9,9,0,0,1,255.66,131.91Z"/><path class="cls-11" d="M224,125.32a7.86,7.86,0,1,1-7.86-7.86A7.86,7.86,0,0,1,224,125.32Z"/><path class="cls-11" d="M249.2,125.35a6.14,6.14,0,1,1-6.13-6.14A6.12,6.12,0,0,1,249.2,125.35Z"/><path class="cls-8" d="M400.4,41.26c0,.55,0,1.14,0,1.69a22.23,22.23,0,0,1-15.84,19.51,20.52,20.52,0,0,1-6.29.94,21.74,21.74,0,0,1-6.24-.89,22.11,22.11,0,0,1-11.29-7.78,21.3,21.3,0,0,1-4.26-9.7,13.69,13.69,0,0,1-.29-2.08c-.05-.55-.05-1.14-.05-1.69a12.73,12.73,0,0,1,.05-1.38,21.92,21.92,0,0,1,10.79-17.63h22.63A22,22,0,0,1,400.4,41.26Z"/><rect class="cls-8" x="356.09" y="42.95" width="44.29" height="44.19"/><path class="cls-9" d="M361.83,57.77a4.1,4.1,0,1,1-4.09-4.09A4.09,4.09,0,0,1,361.83,57.77Z"/><path class="cls-9" d="M394.65,57.77a4.09,4.09,0,1,0,4.09-4.09A4.09,4.09,0,0,0,394.65,57.77Z"/><path class="cls-11" d="M400.4,103.33H356.09c2.92-18,8-22.8,16.63-24.19a32,32,0,0,1,5.55-.44,31.32,31.32,0,0,1,5.49.44C392.48,80.53,397.53,85.28,400.4,103.33Z"/><path class="cls-9" d="M378.24,75h0a17.55,17.55,0,0,1-17.55-17.55V49a17.54,17.54,0,0,1,17.55-17.54h0A17.54,17.54,0,0,1,395.79,49v8.45A17.55,17.55,0,0,1,378.24,75Z"/><path class="cls-9" d="M378.24,87.14h0a5.52,5.52,0,0,1-5.52-5.51V67.76h11V81.63A5.51,5.51,0,0,1,378.24,87.14Z"/><path class="cls-11" d="M374.4,56a1.68,1.68,0,1,1-1.67-1.68A1.67,1.67,0,0,1,374.4,56Z"/><path class="cls-11" d="M385.42,56a1.68,1.68,0,1,1-1.67-1.68A1.67,1.67,0,0,1,385.42,56Z"/><path class="cls-19" d="M378.24,65.05a28.16,28.16,0,0,1-4-.28c-.56-.08-1.05.24-.84.56.76,1.15,2.66,2,4.88,2s4.11-.81,4.88-2c.21-.32-.29-.64-.85-.56A28,28,0,0,1,378.24,65.05Z"/><path class="cls-8" d="M368.14,42.15a6.23,6.23,0,1,1-6.23-6.23A6.22,6.22,0,0,1,368.14,42.15Z"/><path class="cls-8" d="M397.85,48.1c-1.05,3.28-9,3.67-17.71.87s-14.95-7.71-13.9-11,11.4-11.24,20.13-8.44S398.89,44.83,397.85,48.1Z"/><path class="cls-8" d="M383.17,30.59a8,8,0,1,1-8-8A8,8,0,0,1,383.17,30.59Z"/><path class="cls-8" d="M372.22,35.42a7,7,0,1,1-7-7A7,7,0,0,1,372.22,35.42Z"/><path class="cls-8" d="M394.65,35.44A5.45,5.45,0,1,1,389.2,30,5.45,5.45,0,0,1,394.65,35.44Z"/><path class="cls-9" d="M318.09,171.53l11.14,3.13a2.52,2.52,0,0,0,3.1-1.74h0a2.51,2.51,0,0,0-1.74-3.09l-11.15-3.13a2.5,2.5,0,0,0-3.09,1.73h0A2.52,2.52,0,0,0,318.09,171.53Z"/><path class="cls-9" d="M327.64,173.32l5.67,10.1a2.5,2.5,0,0,0,3.41,1h0a2.51,2.51,0,0,0,1-3.42L332,170.87a2.51,2.51,0,0,0-3.42-1h0A2.5,2.5,0,0,0,327.64,173.32Z"/><path class="cls-9" d="M325,166l4,7.22a1.86,1.86,0,0,0,2.54.71h0a1.87,1.87,0,0,0,.72-2.54l-4-7.22a1.88,1.88,0,0,0-2.55-.72h0A1.87,1.87,0,0,0,325,166Z"/><polygon class="cls-14" points="351.12 188.25 362.6 180.05 357.59 167.37 340.57 178.9 334.24 171.06 323.55 179.7 330.47 188.25 351.12 188.25"/><rect class="cls-20" x="292.88" y="107.18" width="117.09" height="12.03"/><path class="cls-12" d="M299.58,110.12a3.08,3.08,0,1,0,3.08,3.07A3.08,3.08,0,0,0,299.58,110.12Zm0,1.4a.72.72,0,1,1-.71.72A.72.72,0,0,1,299.58,111.52Zm0,3.35c-.5,0-.91,0-.91-.55s.41-1.28.91-1.28.92.78.92,1.28S300.09,114.87,299.58,114.87Z"/><rect class="cls-20" x="292.88" y="22.25" width="117.09" height="12.03"/><path class="cls-12" d="M299.58,25.19a3.08,3.08,0,1,0,3.08,3.08A3.08,3.08,0,0,0,299.58,25.19Zm0,1.41a.71.71,0,1,1,0,1.42.71.71,0,0,1,0-1.42Zm0,3.34c-.5,0-.91,0-.91-.54s.41-1.28.91-1.28.92.77.92,1.28S300.09,29.94,299.58,29.94Z"/><rect class="cls-20" x="171.97" y="107.18" width="117.09" height="12.03"/><path class="cls-12" d="M178.67,110.12a3.08,3.08,0,1,0,3.08,3.07A3.08,3.08,0,0,0,178.67,110.12Zm0,1.4a.72.72,0,1,1-.71.72A.72.72,0,0,1,178.67,111.52Zm0,3.35c-.5,0-.91,0-.91-.55s.41-1.28.91-1.28.92.78.92,1.28S179.18,114.87,178.67,114.87Z"/><rect class="cls-20" x="171.97" y="22.25" width="117.09" height="12.03"/><path class="cls-12" d="M178.67,25.19a3.08,3.08,0,1,0,3.08,3.08A3.08,3.08,0,0,0,178.67,25.19Zm0,1.41a.71.71,0,1,1,0,1.42.71.71,0,0,1,0-1.42Zm0,3.34c-.5,0-.91,0-.91-.54s.41-1.28.91-1.28.92.77.92,1.28S179.18,29.94,178.67,29.94Z"/><rect class="cls-20" x="51.06" y="22.25" width="117.09" height="12.03"/><path class="cls-12" d="M57.76,25.19a3.08,3.08,0,1,0,3.08,3.08A3.08,3.08,0,0,0,57.76,25.19Zm0,1.41a.71.71,0,1,1,0,1.42.71.71,0,0,1,0-1.42Zm0,3.34c-.5,0-.91,0-.91-.54s.41-1.28.91-1.28.92.77.92,1.28S58.27,29.94,57.76,29.94Z"/><rect class="cls-20" x="51.06" y="107.18" width="117.09" height="12.03"/><path class="cls-12" d="M57.76,110.12a3.08,3.08,0,1,0,3.08,3.07A3.08,3.08,0,0,0,57.76,110.12Zm0,1.4a.72.72,0,1,1-.71.72A.72.72,0,0,1,57.76,111.52Zm0,3.35c-.5,0-.91,0-.91-.55s.41-1.28.91-1.28.92.78.92,1.28S58.27,114.87,57.76,114.87Z"/></g></g></svg>